<mxfile host="app.diagrams.net" modified="2020-08-02T18:11:56.483Z" agent="5.0 (Windows NT 10.0; Win64; x64) AppleWebKit/537.36 (KHTML, like Gecko) Chrome/84.0.4147.89 Safari/537.36" etag="1OJQNQW-rQI0sukrGnZd" version="13.5.8" type="github">
  <diagram id="C5RBs43oDa-KdzZeNtuy" name="Page-1">
    <mxGraphModel dx="1865" dy="548" grid="1" gridSize="10" guides="1" tooltips="1" connect="1" arrows="1" fold="1" page="1" pageScale="1" pageWidth="827" pageHeight="1169" math="0" shadow="0">
      <root>
        <mxCell id="WIyWlLk6GJQsqaUBKTNV-0" />
        <mxCell id="WIyWlLk6GJQsqaUBKTNV-1" parent="WIyWlLk6GJQsqaUBKTNV-0" />
        <mxCell id="hKpLzdI26aXPK6nYAB4r-0" value="ExpressionEvaluator" style="swimlane;fontStyle=1;align=center;verticalAlign=top;childLayout=stackLayout;horizontal=1;startSize=26;horizontalStack=0;resizeParent=1;resizeParentMax=0;resizeLast=0;collapsible=1;marginBottom=0;" vertex="1" parent="WIyWlLk6GJQsqaUBKTNV-1">
          <mxGeometry x="250" y="59" width="350" height="118" as="geometry" />
        </mxCell>
        <mxCell id="hKpLzdI26aXPK6nYAB4r-1" value="+ baseOperatorsEvaluator: BaseOperatorsBasedEvaluator&#xa;+ logicalOperatorsEvaluator: LogicalOperatorsBasedEvaluator" style="text;strokeColor=none;fillColor=none;align=left;verticalAlign=top;spacingLeft=4;spacingRight=4;overflow=hidden;rotatable=0;points=[[0,0.5],[1,0.5]];portConstraint=eastwest;" vertex="1" parent="hKpLzdI26aXPK6nYAB4r-0">
          <mxGeometry y="26" width="350" height="44" as="geometry" />
        </mxCell>
        <mxCell id="hKpLzdI26aXPK6nYAB4r-2" value="" style="line;strokeWidth=1;fillColor=none;align=left;verticalAlign=middle;spacingTop=-1;spacingLeft=3;spacingRight=3;rotatable=0;labelPosition=right;points=[];portConstraint=eastwest;" vertex="1" parent="hKpLzdI26aXPK6nYAB4r-0">
          <mxGeometry y="70" width="350" height="8" as="geometry" />
        </mxCell>
        <mxCell id="hKpLzdI26aXPK6nYAB4r-3" value="+ isAllowed(String, String, Map&lt;String, Object&gt;): boolean" style="text;strokeColor=none;fillColor=none;align=left;verticalAlign=top;spacingLeft=4;spacingRight=4;overflow=hidden;rotatable=0;points=[[0,0.5],[1,0.5]];portConstraint=eastwest;" vertex="1" parent="hKpLzdI26aXPK6nYAB4r-0">
          <mxGeometry y="78" width="350" height="40" as="geometry" />
        </mxCell>
        <mxCell id="hKpLzdI26aXPK6nYAB4r-64" style="edgeStyle=orthogonalEdgeStyle;rounded=0;orthogonalLoop=1;jettySize=auto;html=1;" edge="1" parent="WIyWlLk6GJQsqaUBKTNV-1" source="hKpLzdI26aXPK6nYAB4r-5">
          <mxGeometry relative="1" as="geometry">
            <mxPoint x="180" y="389" as="targetPoint" />
          </mxGeometry>
        </mxCell>
        <mxCell id="hKpLzdI26aXPK6nYAB4r-5" value="BaseOperatorsBasedEvaluator" style="swimlane;fontStyle=1;align=center;verticalAlign=top;childLayout=stackLayout;horizontal=1;startSize=26;horizontalStack=0;resizeParent=1;resizeParentMax=0;resizeLast=0;collapsible=1;marginBottom=0;" vertex="1" parent="WIyWlLk6GJQsqaUBKTNV-1">
          <mxGeometry x="40" y="229" width="280" height="100" as="geometry" />
        </mxCell>
        <mxCell id="hKpLzdI26aXPK6nYAB4r-6" value="+ field: type" style="text;strokeColor=none;fillColor=none;align=left;verticalAlign=top;spacingLeft=4;spacingRight=4;overflow=hidden;rotatable=0;points=[[0,0.5],[1,0.5]];portConstraint=eastwest;" vertex="1" parent="hKpLzdI26aXPK6nYAB4r-5">
          <mxGeometry y="26" width="280" height="26" as="geometry" />
        </mxCell>
        <mxCell id="hKpLzdI26aXPK6nYAB4r-7" value="" style="line;strokeWidth=1;fillColor=none;align=left;verticalAlign=middle;spacingTop=-1;spacingLeft=3;spacingRight=3;rotatable=0;labelPosition=right;points=[];portConstraint=eastwest;" vertex="1" parent="hKpLzdI26aXPK6nYAB4r-5">
          <mxGeometry y="52" width="280" height="8" as="geometry" />
        </mxCell>
        <mxCell id="hKpLzdI26aXPK6nYAB4r-8" value="+ evaluate(String, Map&lt;String, Object&gt;): boolean&#xa;+ evaluate(Condition): boolean" style="text;strokeColor=none;fillColor=none;align=left;verticalAlign=top;spacingLeft=4;spacingRight=4;overflow=hidden;rotatable=0;points=[[0,0.5],[1,0.5]];portConstraint=eastwest;" vertex="1" parent="hKpLzdI26aXPK6nYAB4r-5">
          <mxGeometry y="60" width="280" height="40" as="geometry" />
        </mxCell>
        <mxCell id="hKpLzdI26aXPK6nYAB4r-10" value="LogicalOperatorsBasedEvaluator" style="swimlane;fontStyle=1;align=center;verticalAlign=top;childLayout=stackLayout;horizontal=1;startSize=26;horizontalStack=0;resizeParent=1;resizeParentMax=0;resizeLast=0;collapsible=1;marginBottom=0;" vertex="1" parent="WIyWlLk6GJQsqaUBKTNV-1">
          <mxGeometry x="569" y="229" width="280" height="86" as="geometry" />
        </mxCell>
        <mxCell id="hKpLzdI26aXPK6nYAB4r-11" value="+ field: type" style="text;strokeColor=none;fillColor=none;align=left;verticalAlign=top;spacingLeft=4;spacingRight=4;overflow=hidden;rotatable=0;points=[[0,0.5],[1,0.5]];portConstraint=eastwest;" vertex="1" parent="hKpLzdI26aXPK6nYAB4r-10">
          <mxGeometry y="26" width="280" height="26" as="geometry" />
        </mxCell>
        <mxCell id="hKpLzdI26aXPK6nYAB4r-12" value="" style="line;strokeWidth=1;fillColor=none;align=left;verticalAlign=middle;spacingTop=-1;spacingLeft=3;spacingRight=3;rotatable=0;labelPosition=right;points=[];portConstraint=eastwest;" vertex="1" parent="hKpLzdI26aXPK6nYAB4r-10">
          <mxGeometry y="52" width="280" height="8" as="geometry" />
        </mxCell>
        <mxCell id="hKpLzdI26aXPK6nYAB4r-13" value="+ evaluate(String, Map&lt;String, Object&gt;): boolean" style="text;strokeColor=none;fillColor=none;align=left;verticalAlign=top;spacingLeft=4;spacingRight=4;overflow=hidden;rotatable=0;points=[[0,0.5],[1,0.5]];portConstraint=eastwest;" vertex="1" parent="hKpLzdI26aXPK6nYAB4r-10">
          <mxGeometry y="60" width="280" height="26" as="geometry" />
        </mxCell>
        <mxCell id="hKpLzdI26aXPK6nYAB4r-14" value="" style="endArrow=open;html=1;endSize=12;startArrow=diamondThin;startSize=14;startFill=1;edgeStyle=orthogonalEdgeStyle;align=left;verticalAlign=bottom;exitX=-0.013;exitY=0.918;exitDx=0;exitDy=0;exitPerimeter=0;" edge="1" parent="WIyWlLk6GJQsqaUBKTNV-1" source="hKpLzdI26aXPK6nYAB4r-1">
          <mxGeometry x="-0.4013" y="-37" relative="1" as="geometry">
            <mxPoint x="250" y="107" as="sourcePoint" />
            <mxPoint x="170" y="230" as="targetPoint" />
            <mxPoint as="offset" />
          </mxGeometry>
        </mxCell>
        <mxCell id="hKpLzdI26aXPK6nYAB4r-16" value="1" style="edgeLabel;html=1;align=center;verticalAlign=middle;resizable=0;points=[];" vertex="1" connectable="0" parent="hKpLzdI26aXPK6nYAB4r-14">
          <mxGeometry x="-0.4143" y="20" relative="1" as="geometry">
            <mxPoint x="-9" y="1.2" as="offset" />
          </mxGeometry>
        </mxCell>
        <mxCell id="hKpLzdI26aXPK6nYAB4r-15" value="" style="endArrow=open;html=1;endSize=12;startArrow=diamondThin;startSize=14;startFill=1;edgeStyle=orthogonalEdgeStyle;align=left;verticalAlign=bottom;exitX=1.007;exitY=0.923;exitDx=0;exitDy=0;exitPerimeter=0;entryX=0.464;entryY=-0.053;entryDx=0;entryDy=0;entryPerimeter=0;" edge="1" parent="WIyWlLk6GJQsqaUBKTNV-1" source="hKpLzdI26aXPK6nYAB4r-1" target="hKpLzdI26aXPK6nYAB4r-10">
          <mxGeometry x="-0.4013" y="-37" relative="1" as="geometry">
            <mxPoint x="380" y="110.79600000000005" as="sourcePoint" />
            <mxPoint x="490" y="92" as="targetPoint" />
            <mxPoint as="offset" />
          </mxGeometry>
        </mxCell>
        <mxCell id="hKpLzdI26aXPK6nYAB4r-17" value="1" style="edgeLabel;html=1;align=center;verticalAlign=middle;resizable=0;points=[];" vertex="1" connectable="0" parent="hKpLzdI26aXPK6nYAB4r-15">
          <mxGeometry x="-0.3404" y="-2" relative="1" as="geometry">
            <mxPoint x="-6.38" y="5.4" as="offset" />
          </mxGeometry>
        </mxCell>
        <mxCell id="hKpLzdI26aXPK6nYAB4r-24" value="&lt;p style=&quot;margin: 0px ; margin-top: 4px ; text-align: center&quot;&gt;&lt;i&gt;&amp;lt;&amp;lt;Enum&amp;gt;&amp;gt;&lt;/i&gt;&lt;br&gt;&lt;b&gt;OperatorType&lt;/b&gt;&lt;/p&gt;&lt;hr size=&quot;1&quot;&gt;&lt;p style=&quot;margin: 0px ; margin-left: 4px&quot;&gt;+ // All base operators&lt;/p&gt;" style="verticalAlign=top;align=left;overflow=fill;fontSize=12;fontFamily=Helvetica;html=1;" vertex="1" parent="WIyWlLk6GJQsqaUBKTNV-1">
          <mxGeometry x="-160" y="440" width="120" height="80" as="geometry" />
        </mxCell>
        <mxCell id="hKpLzdI26aXPK6nYAB4r-25" value="&lt;p style=&quot;margin: 0px ; margin-top: 4px ; text-align: center&quot;&gt;&lt;i&gt;&amp;lt;&amp;lt;Abstract class&amp;gt;&amp;gt;&lt;/i&gt;&lt;br&gt;&lt;b&gt;ConditionEvaluator&lt;/b&gt;&lt;/p&gt;&lt;hr size=&quot;1&quot;&gt;&lt;p style=&quot;margin: 0px ; margin-left: 4px&quot;&gt;&lt;br&gt;&lt;/p&gt;&lt;hr size=&quot;1&quot;&gt;&lt;p style=&quot;margin: 0px ; margin-left: 4px&quot;&gt;+ evaluate(Condition): boolean&lt;/p&gt;" style="verticalAlign=top;align=left;overflow=fill;fontSize=12;fontFamily=Helvetica;html=1;" vertex="1" parent="WIyWlLk6GJQsqaUBKTNV-1">
          <mxGeometry x="99" y="580" width="190" height="100" as="geometry" />
        </mxCell>
        <mxCell id="hKpLzdI26aXPK6nYAB4r-46" value="All base operators&amp;nbsp;&lt;br&gt;evaluation implementations" style="text;html=1;align=center;verticalAlign=middle;resizable=0;points=[];autosize=1;" vertex="1" parent="WIyWlLk6GJQsqaUBKTNV-1">
          <mxGeometry x="138" y="768" width="160" height="30" as="geometry" />
        </mxCell>
        <mxCell id="hKpLzdI26aXPK6nYAB4r-47" value="Extends" style="endArrow=block;endSize=16;endFill=0;html=1;exitX=0.25;exitY=0;exitDx=0;exitDy=0;entryX=0.789;entryY=0.99;entryDx=0;entryDy=0;entryPerimeter=0;" edge="1" parent="WIyWlLk6GJQsqaUBKTNV-1" source="hKpLzdI26aXPK6nYAB4r-51" target="hKpLzdI26aXPK6nYAB4r-25">
          <mxGeometry width="160" relative="1" as="geometry">
            <mxPoint x="335.4000000000001" y="738.194" as="sourcePoint" />
            <mxPoint x="469" y="700" as="targetPoint" />
          </mxGeometry>
        </mxCell>
        <mxCell id="hKpLzdI26aXPK6nYAB4r-49" value="Extends" style="endArrow=block;endSize=16;endFill=0;html=1;" edge="1" parent="WIyWlLk6GJQsqaUBKTNV-1">
          <mxGeometry width="160" relative="1" as="geometry">
            <mxPoint x="209" y="768" as="sourcePoint" />
            <mxPoint x="209" y="681" as="targetPoint" />
          </mxGeometry>
        </mxCell>
        <mxCell id="hKpLzdI26aXPK6nYAB4r-50" value="&lt;p style=&quot;margin: 0px ; margin-top: 4px ; text-align: center&quot;&gt;&lt;br&gt;&lt;b&gt;EqualsContionEvaluator&lt;/b&gt;&lt;/p&gt;" style="verticalAlign=top;align=left;overflow=fill;fontSize=12;fontFamily=Helvetica;html=1;" vertex="1" parent="WIyWlLk6GJQsqaUBKTNV-1">
          <mxGeometry x="-11" y="758" width="150" height="50" as="geometry" />
        </mxCell>
        <mxCell id="hKpLzdI26aXPK6nYAB4r-51" value="&lt;p style=&quot;margin: 0px ; margin-top: 4px ; text-align: center&quot;&gt;&lt;br&gt;&lt;b&gt;NoneofContionEvaluator&lt;/b&gt;&lt;/p&gt;" style="verticalAlign=top;align=left;overflow=fill;fontSize=12;fontFamily=Helvetica;html=1;" vertex="1" parent="WIyWlLk6GJQsqaUBKTNV-1">
          <mxGeometry x="299" y="758" width="150" height="50" as="geometry" />
        </mxCell>
        <mxCell id="hKpLzdI26aXPK6nYAB4r-53" value="Extends" style="endArrow=block;endSize=16;endFill=0;html=1;entryX=0.25;entryY=1;entryDx=0;entryDy=0;exitX=0.5;exitY=0;exitDx=0;exitDy=0;" edge="1" parent="WIyWlLk6GJQsqaUBKTNV-1" source="hKpLzdI26aXPK6nYAB4r-50" target="hKpLzdI26aXPK6nYAB4r-25">
          <mxGeometry width="160" relative="1" as="geometry">
            <mxPoint x="39" y="760" as="sourcePoint" />
            <mxPoint x="199" y="760" as="targetPoint" />
          </mxGeometry>
        </mxCell>
        <mxCell id="hKpLzdI26aXPK6nYAB4r-61" style="edgeStyle=orthogonalEdgeStyle;rounded=0;orthogonalLoop=1;jettySize=auto;html=1;" edge="1" parent="WIyWlLk6GJQsqaUBKTNV-1">
          <mxGeometry relative="1" as="geometry">
            <mxPoint x="181" y="560" as="targetPoint" />
            <mxPoint x="181" y="490" as="sourcePoint" />
          </mxGeometry>
        </mxCell>
        <mxCell id="hKpLzdI26aXPK6nYAB4r-55" value="&lt;p style=&quot;margin: 0px ; margin-top: 4px ; text-align: center&quot;&gt;&lt;b&gt;ConditionEvaluatorFactory&lt;/b&gt;&lt;/p&gt;&lt;hr size=&quot;1&quot;&gt;&lt;p style=&quot;margin: 0px ; margin-left: 4px&quot;&gt;+ field: Type&lt;/p&gt;&lt;hr size=&quot;1&quot;&gt;&lt;p style=&quot;margin: 0px ; margin-left: 4px&quot;&gt;+ getConditionEvaluator(OperatorType):&amp;nbsp;&lt;/p&gt;&lt;p style=&quot;margin: 0px ; margin-left: 4px&quot;&gt;ConditionEvaluator&lt;/p&gt;" style="verticalAlign=top;align=left;overflow=fill;fontSize=12;fontFamily=Helvetica;html=1;" vertex="1" parent="WIyWlLk6GJQsqaUBKTNV-1">
          <mxGeometry x="90" y="390" width="220" height="100" as="geometry" />
        </mxCell>
        <mxCell id="hKpLzdI26aXPK6nYAB4r-57" value="" style="endArrow=none;html=1;" edge="1" parent="WIyWlLk6GJQsqaUBKTNV-1">
          <mxGeometry width="50" height="50" relative="1" as="geometry">
            <mxPoint x="459" y="820" as="sourcePoint" />
            <mxPoint x="459" y="560" as="targetPoint" />
          </mxGeometry>
        </mxCell>
        <mxCell id="hKpLzdI26aXPK6nYAB4r-58" value="" style="endArrow=none;html=1;" edge="1" parent="WIyWlLk6GJQsqaUBKTNV-1">
          <mxGeometry width="50" height="50" relative="1" as="geometry">
            <mxPoint x="-21" y="820" as="sourcePoint" />
            <mxPoint x="-21" y="560" as="targetPoint" />
          </mxGeometry>
        </mxCell>
        <mxCell id="hKpLzdI26aXPK6nYAB4r-59" value="" style="endArrow=none;html=1;" edge="1" parent="WIyWlLk6GJQsqaUBKTNV-1">
          <mxGeometry width="50" height="50" relative="1" as="geometry">
            <mxPoint x="459" y="560" as="sourcePoint" />
            <mxPoint x="-21" y="560" as="targetPoint" />
          </mxGeometry>
        </mxCell>
        <mxCell id="hKpLzdI26aXPK6nYAB4r-60" value="" style="endArrow=none;html=1;" edge="1" parent="WIyWlLk6GJQsqaUBKTNV-1">
          <mxGeometry width="50" height="50" relative="1" as="geometry">
            <mxPoint x="459" y="820" as="sourcePoint" />
            <mxPoint x="-21" y="820" as="targetPoint" />
          </mxGeometry>
        </mxCell>
        <mxCell id="hKpLzdI26aXPK6nYAB4r-62" value="Creates" style="text;html=1;align=center;verticalAlign=middle;resizable=0;points=[];autosize=1;" vertex="1" parent="WIyWlLk6GJQsqaUBKTNV-1">
          <mxGeometry x="181" y="520" width="60" height="20" as="geometry" />
        </mxCell>
        <mxCell id="hKpLzdI26aXPK6nYAB4r-67" value="Uses" style="text;html=1;strokeColor=none;fillColor=none;align=center;verticalAlign=middle;whiteSpace=wrap;rounded=0;" vertex="1" parent="WIyWlLk6GJQsqaUBKTNV-1">
          <mxGeometry x="180" y="350" width="40" height="20" as="geometry" />
        </mxCell>
        <mxCell id="hKpLzdI26aXPK6nYAB4r-19" value="Condition" style="swimlane;fontStyle=1;align=center;verticalAlign=top;childLayout=stackLayout;horizontal=1;startSize=26;horizontalStack=0;resizeParent=1;resizeParentMax=0;resizeLast=0;collapsible=1;marginBottom=0;" vertex="1" parent="WIyWlLk6GJQsqaUBKTNV-1">
          <mxGeometry x="-160" y="280" width="160" height="130" as="geometry" />
        </mxCell>
        <mxCell id="hKpLzdI26aXPK6nYAB4r-20" value="+ key: String&#xa;+ value: String&#xa;+ operator: OperatorType" style="text;strokeColor=none;fillColor=none;align=left;verticalAlign=top;spacingLeft=4;spacingRight=4;overflow=hidden;rotatable=0;points=[[0,0.5],[1,0.5]];portConstraint=eastwest;" vertex="1" parent="hKpLzdI26aXPK6nYAB4r-19">
          <mxGeometry y="26" width="160" height="54" as="geometry" />
        </mxCell>
        <mxCell id="hKpLzdI26aXPK6nYAB4r-21" value="" style="line;strokeWidth=1;fillColor=none;align=left;verticalAlign=middle;spacingTop=-1;spacingLeft=3;spacingRight=3;rotatable=0;labelPosition=right;points=[];portConstraint=eastwest;" vertex="1" parent="hKpLzdI26aXPK6nYAB4r-19">
          <mxGeometry y="80" width="160" height="8" as="geometry" />
        </mxCell>
        <mxCell id="hKpLzdI26aXPK6nYAB4r-22" value="+ getters/setters&#xa;+ parameterized constructor" style="text;strokeColor=none;fillColor=none;align=left;verticalAlign=top;spacingLeft=4;spacingRight=4;overflow=hidden;rotatable=0;points=[[0,0.5],[1,0.5]];portConstraint=eastwest;" vertex="1" parent="hKpLzdI26aXPK6nYAB4r-19">
          <mxGeometry y="88" width="160" height="42" as="geometry" />
        </mxCell>
        <mxCell id="hKpLzdI26aXPK6nYAB4r-68" value="&lt;p style=&quot;margin: 0px ; margin-top: 4px ; text-align: center&quot;&gt;&lt;i&gt;&amp;lt;&amp;lt;Enum&amp;gt;&amp;gt;&lt;/i&gt;&lt;br&gt;&lt;b&gt;LogicalOperatorType&lt;/b&gt;&lt;/p&gt;&lt;hr size=&quot;1&quot;&gt;&lt;p style=&quot;margin: 0px ; margin-left: 4px&quot;&gt;+ // All logical operators&lt;/p&gt;" style="verticalAlign=top;align=left;overflow=fill;fontSize=12;fontFamily=Helvetica;html=1;" vertex="1" parent="WIyWlLk6GJQsqaUBKTNV-1">
          <mxGeometry x="1000" y="280" width="150" height="80" as="geometry" />
        </mxCell>
      </root>
    </mxGraphModel>
  </diagram>
</mxfile>
